<?xml version="1.0" standalone="no"?>
<!DOCTYPE svg PUBLIC "-//W3C//DTD SVG 20010904//EN"
 "http://www.w3.org/TR/2001/REC-SVG-20010904/DTD/svg10.dtd">
<svg version="1.0" xmlns="http://www.w3.org/2000/svg"
 width="500.000000pt" height="500.000000pt" viewBox="0 0 500.000000 500.000000"
 preserveAspectRatio="xMidYMid meet">

<g transform="translate(0.000000,500.000000) scale(0.100000,-0.100000)"
fill="#000000" stroke="none">
<path d="M0 2500 l0 -2500 2500 0 2500 0 0 2500 0 2500 -2500 0 -2500 0 0
-2500z m1357 667 c2 -3 -6 -25 -18 -48 -12 -24 -35 -85 -51 -136 -42 -137 -97
-183 -215 -183 -39 0 -43 -2 -43 -25 0 -20 5 -25 26 -25 l25 0 -3 -298 c-3
-296 -3 -298 -28 -347 -29 -56 -95 -107 -163 -126 -58 -16 -193 -14 -245 4
-56 20 -104 53 -130 92 -12 17 -22 33 -22 36 0 3 31 20 70 39 l70 34 22 -21
c48 -45 124 -55 185 -26 37 17 63 62 63 107 l0 25 -47 -21 c-65 -29 -173 -29
-230 0 -53 28 -116 100 -132 153 -7 23 -12 72 -12 108 1 200 205 323 376 227
42 -23 45 -24 45 -5 0 14 7 19 25 19 14 0 25 3 25 8 0 4 -18 6 -39 4 -21 -2
-48 1 -59 7 -17 9 -142 154 -142 165 0 13 100 28 158 24 l68 -5 18 45 c47 112
193 188 345 177 29 -2 55 -6 58 -8z m1792 -111 c31 -17 51 -54 51 -97 0 -22
-10 -41 -35 -66 -32 -32 -40 -35 -77 -30 -53 7 -88 42 -95 95 -5 37 -2 45 30
77 39 39 78 45 126 21z m-1637 -296 c21 -6 40 -15 43 -20 3 -5 -10 -41 -30
-80 -29 -58 -39 -70 -53 -64 -30 14 -109 16 -132 4 -39 -21 -50 -68 -50 -220
l0 -140 -90 0 -90 0 0 255 0 255 90 0 90 0 0 -31 0 -31 33 28 c61 52 115 64
189 44z m423 -19 c61 -27 121 -83 146 -136 26 -57 26 -165 -2 -222 -28 -57
-99 -118 -162 -139 -65 -22 -179 -22 -245 0 -174 58 -241 280 -125 415 66 78
153 113 268 108 44 -3 88 -12 120 -26z m1609 14 c32 -9 62 -18 67 -21 5 -3 -5
-32 -21 -64 l-30 -59 -35 14 c-47 20 -124 20 -131 0 -9 -22 10 -40 58 -54 24
-7 63 -24 87 -37 47 -26 61 -21 61 21 0 39 63 129 113 162 64 43 118 57 194
50 102 -10 177 -58 217 -139 l25 -53 1 88 0 87 89 0 c83 0 90 -1 93 -21 l3
-21 26 21 c44 34 108 47 172 32 74 -16 117 -47 145 -101 20 -41 22 -57 22
-232 l0 -188 -90 0 -90 0 0 166 0 166 -29 29 c-43 43 -102 37 -143 -15 -15
-18 -18 -45 -18 -183 l0 -163 -90 0 -90 0 0 115 0 115 -185 0 c-177 0 -185 -1
-185 -19 0 -11 11 -32 23 -47 20 -23 34 -28 83 -32 54 -4 63 -1 93 24 l33 27
64 -31 c74 -37 74 -46 7 -101 -47 -39 -114 -61 -189 -63 -92 -3 -148 18 -213
77 l-56 52 -18 -38 c-27 -57 -101 -90 -204 -92 -82 0 -171 22 -193 49 -18 21
-30 17 -30 -11 0 -25 -1 -25 -90 -25 l-90 0 -2 205 -3 206 -110 -206 -110
-205 -61 0 -61 0 -58 130 c-32 72 -59 129 -60 128 -2 -2 -28 -59 -58 -128
l-56 -125 -63 -3 -63 -2 -130 245 c-71 134 -131 249 -133 255 -3 7 28 10 97 8
l102 -3 50 -110 c28 -60 55 -121 61 -135 8 -22 15 -12 70 113 l61 138 65 -3
65 -3 56 -127 c31 -71 58 -128 62 -128 3 0 32 58 63 129 l57 129 92 4 c51 2
127 2 169 0 l78 -4 2 -227 3 -226 33 58 c19 31 35 57 37 57 2 0 25 -11 51 -25
54 -29 105 -32 125 -9 20 24 1 43 -68 71 -72 29 -128 79 -138 123 -31 143 127
235 319 185z"/>
<path d="M1121 3080 c-69 -38 -87 -55 -118 -108 -23 -38 -24 -46 -13 -67 13
-23 14 -22 49 48 34 67 62 97 137 144 39 25 -3 11 -55 -17z"/>
<path d="M852 2916 c26 -7 54 -18 62 -26 13 -10 16 -10 16 3 0 17 -56 37 -100
36 -16 0 -9 -5 22 -13z"/>
<path d="M968 2858 c-3 -7 3 -26 11 -41 12 -23 13 -31 4 -34 -23 -8 -14 -33
12 -33 30 0 31 13 5 74 -20 48 -26 54 -32 34z"/>
<path d="M733 2606 c-43 -19 -65 -56 -65 -110 0 -76 43 -116 123 -116 33 0 48
7 75 34 28 28 34 42 34 76 0 94 -84 153 -167 116z"/>
<path d="M1770 2613 c-64 -21 -90 -56 -90 -124 0 -33 6 -47 34 -75 28 -28 42
-34 75 -34 81 0 121 41 121 123 0 51 -21 84 -66 103 -35 14 -48 16 -74 7z"/>
<path d="M3818 2630 c-14 -11 -28 -29 -31 -40 -5 -19 -1 -20 93 -20 94 0 98 1
93 20 -9 32 -52 60 -93 60 -22 0 -48 -8 -62 -20z"/>
</g>
</svg>
